HIERARCHY
ROOT root
{
	OFFSET	0	13.1	24.9
	CHANNELS 6  Xposition Yposition Zposition Xrotation Yrotation Zrotation
	JOINT spine_1
	{
		OFFSET	0	9.99999	0
		CHANNELS 3  Xrotation Yrotation Zrotation
		JOINT spine_2
		{
			OFFSET	0	112	-10
			CHANNELS 3  Xrotation Yrotation Zrotation
			JOINT spine_3
			{
				OFFSET	0	206.5	19.3
				CHANNELS 3  Xrotation Yrotation Zrotation
				JOINT spine_4
				{
					OFFSET	0	110.4	14.6
					CHANNELS 3  Xrotation Yrotation Zrotation
					JOINT neck_1
					{
						OFFSET	0	71.8	-50.3
						CHANNELS 3  Xrotation Yrotation Zrotation
						JOINT neck_2
						{
							OFFSET	0	86.2	-25.8
							CHANNELS 3  Xrotation Yrotation Zrotation
							JOINT head_ee
							{
								OFFSET	0	179.8	-8.7
								CHANNELS 3  Xrotation Yrotation Zrotation
								End Site
								{
									OFFSET	1	0	0
								}
							}
						}
					}
					JOINT left_clavicle
					{
						OFFSET	-43.2	22.4	-70.8
						CHANNELS 3  Xrotation Yrotation Zrotation
						JOINT left_shoulder
						{
							OFFSET	-93.9	-5.79999	48.7
							CHANNELS 3  Xrotation Yrotation Zrotation
							JOINT left_elbow
							{
								OFFSET	-291.4	-30.8	15.2
								CHANNELS 3  Xrotation Yrotation Zrotation
								JOINT left_lowarm_twist
								{
									OFFSET	-110.7	-3.89999	13.6
									CHANNELS 3  Xrotation Yrotation Zrotation
									JOINT left_hand
									{
										OFFSET	-110.7	-3.89999	13.6
										CHANNELS 3  Xrotation Yrotation Zrotation
										JOINT left_ee
										{
											OFFSET	-80.8	-5.10001	12.1
											CHANNELS 3  Xrotation Yrotation Zrotation
											End Site
											{
												OFFSET	1	0	0
											}
										}
									}
								}
							}
						}
					}
					JOINT right_clavicle
					{
						OFFSET	43.2	22.4	-70.8
						CHANNELS 3  Xrotation Yrotation Zrotation
						JOINT right_shoulder
						{
							OFFSET	93.9	-5.79999	48.7
							CHANNELS 3  Xrotation Yrotation Zrotation
							JOINT right_elbow
							{
								OFFSET	291.4	-30.8	15.2
								CHANNELS 3  Xrotation Yrotation Zrotation
								JOINT right_lowarm_twist
								{
									OFFSET	110.7	-3.89999	13.6
									CHANNELS 3  Xrotation Yrotation Zrotation
									JOINT right_hand
									{
										OFFSET	110.7	-3.89999	13.6
										CHANNELS 3  Xrotation Yrotation Zrotation
										JOINT right_ee
										{
											OFFSET	80.8	-5.10001	12.1
											CHANNELS 3  Xrotation Yrotation Zrotation
											End Site
											{
												OFFSET	1	0	0
											}
										}
									}
								}
							}
						}
					}
				}
			}
		}
	}
	JOINT left_hip
	{
		OFFSET	-82.8	-127.5	0.300001
		CHANNELS 3  Xrotation Yrotation Zrotation
		JOINT left_knee
		{
			OFFSET	-28.2	-396.7	2.2
			CHANNELS 3  Xrotation Yrotation Zrotation
			JOINT left_ankle
			{
				OFFSET	-11.7	-411.3	35.4
				CHANNELS 3  Xrotation Yrotation Zrotation
				JOINT left_toes
				{
					OFFSET	0	-60	-88.6
					CHANNELS 3  Xrotation Yrotation Zrotation
					JOINT left_foot_ee
					{
						OFFSET	-22.5	-16.5	-42.2
						CHANNELS 3  Xrotation Yrotation Zrotation
						End Site
						{
							OFFSET	1	0	0
						}
					}
				}
			}
		}
	}
	JOINT right_hip
	{
		OFFSET	82.8	-127.5	0.300001
		CHANNELS 3  Xrotation Yrotation Zrotation
		JOINT right_knee
		{
			OFFSET	28.2	-396.7	2.2
			CHANNELS 3  Xrotation Yrotation Zrotation
			JOINT right_ankle
			{
				OFFSET	11.7	-411.3	35.4
				CHANNELS 3  Xrotation Yrotation Zrotation
				JOINT right_toes
				{
					OFFSET	0	-60	-88.6
					CHANNELS 3  Xrotation Yrotation Zrotation
					JOINT right_foot_ee
					{
						OFFSET	22.5	-16.5	-42.2
						CHANNELS 3  Xrotation Yrotation Zrotation
						End Site
						{
							OFFSET	1	0	0
						}
					}
				}
			}
		}
	}
}
MOTION
Frames: 11
Frame Time: 0.02
306.881 693.07 -484.883 -175.394 -72.3303 -176.108 -0.40627 -0.086904 -1.09236 -0.405606 -0.0172223 -1.09568 -0.404902 0.221063 -1.07329 -0.406507 0.0487936 -1.09473 -14.5069 13.0244 4.31935 -14.8743 22.3091 8.39679 -0.0 0.0 -0.0 6.85375 24.3912 12.1487 -4.01691 -21.2096 69.4317 1.97852 -44.4193 0.807874 22.1301 0.241885 -2.79905 -1.8678 18.5163 -3.75367 -0.0 0.0 -0.0 7.97484 -6.51426 -15.3289 84.5271 -61.8887 -0.339938 0.221326 6.25699 -0.012097 41.482 0.428585 5.16762 -9.09985 -11.1413 72.978 0.0 0.0 0.0 4.5445 14.4691 -6.33459 -19.1863 0.304433 2.91482 23.965 15.4858 -3.24732 -25.8013 0.0 0.0 -0.0 0.0 -0.0 15.1271 5.16678 0.800251 -27.4126 -0.134441 -4.16467 26.5925 18.068 3.86061 -17.369 0.0 0.0 0.0 0.0 0.0 
312.748 692.614 -479.681 -173.641 -74.5003 -174.4 -0.423527 -0.312956 -1.04543 -0.422953 -0.245802 -1.06322 -0.417922 -0.00890392 -1.09123 -0.419537 -0.181121 -1.07613 -13.7675 12.6109 2.97777 -14.1207 22.236 6.84839 -0.0 0.0 -0.0 7.05874 24.1545 12.4605 -4.53841 -21.337 69.3117 1.99617 -44.6735 0.820252 23.3572 0.223488 -2.9547 -2.04772 21.1248 -3.55773 -0.0 0.0 -0.0 7.80028 -6.06246 -15.0194 85.685 -63.0384 0.695719 0.210414 5.95076 -0.0109367 37.9818 0.248472 4.75787 -9.00869 -10.1375 73.2177 0.0 0.0 0.0 3.27152 14.0001 -6.45288 -15.5785 0.322088 2.36165 23.1687 13.965 -3.13986 -23.9071 0.0 0.0 -0.0 0.0 -0.0 15.9704 5.26156 0.430396 -30.4975 -0.0246896 -4.62533 27.7715 12.5312 3.85186 -17.0778 0.0 0.0 0.0 0.0 0.0 
316.908 690.205 -478.784 -173.453 -73.9963 -174.113 -0.289913 -0.0764091 -1.06735 -0.289279 -0.00834018 -1.07005 -0.288789 0.222047 -1.04679 -0.290314 0.0539499 -1.06872 -13.5929 12.6824 2.78737 -13.948 22.4691 6.65792 -0.0 0.0 -0.0 6.79608 24.023 12.1022 -4.7902 -21.772 69.9182 1.99131 -44.6038 0.816839 23.7349 0.217154 -3.00253 -1.95437 19.6519 -3.72402 -0.0 0.0 -0.0 7.92306 -5.92146 -15.2579 81.7159 -63.7975 -2.68549 0.346395 9.73699 -0.0295048 40.2487 0.36226 5.02449 -9.04645 -10.4034 73.5107 0.0 0.0 0.0 3.87981 13.5727 -6.75327 -17.3304 0.317866 2.6304 23.182 16.5948 -3.16287 -24.687 0.0 0.0 -0.0 0.0 -0.0 14.9762 3.91161 0.832557 -28.7623 -0.0894789 -4.36693 26.5436 13.3407 3.72768 -18.1263 0.0 0.0 0.0 0.0 0.0 
319.662 689.877 -473.739 -172.838 -75.0816 -173.349 -0.30895 -0.126701 -1.1578 -0.308205 -0.0527752 -1.16352 -0.306709 0.199116 -1.14757 -0.308547 0.015393 -1.16461 -12.844 12.5148 2.22375 -13.1628 22.416 5.91608 -0.0 0.0 -0.0 6.7684 23.8742 12.0767 -4.58862 -22.1519 70.5368 1.87816 -42.9304 0.738565 24.4638 0.204039 -3.09473 -2.02825 20.4806 -3.7588 -0.0 0.0 -0.0 8.07784 -6.03539 -15.5464 78.3316 -64.8351 -5.38386 0.43732 12.2236 -0.0468274 39.4597 0.321456 4.93219 -8.90915 -9.07307 73.3087 0.0 0.0 0.0 3.45818 14.0375 -6.68469 -15.3628 0.322039 2.32855 25.1676 16.8966 -3.40427 -23.764 0.0 0.0 -0.0 0.0 -0.0 15.0082 3.07588 0.284303 -29.0421 -0.0795612 -4.40873 27.6924 10.0147 3.78972 -18.6445 0.0 0.0 0.0 0.0 0.0 
325.522 686.773 -471.818 -172.328 -77.2021 -172.621 -0.370892 -0.227462 -1.37725 -0.369848 -0.139372 -1.38893 -0.365795 0.164532 -1.38617 -0.368472 -0.0564311 -1.39476 -12.727 12.4422 2.19072 -13.0355 22.2858 5.83723 -0.0 0.0 -0.0 6.98834 23.5762 12.4176 -4.48507 -22.0771 71.174 1.75424 -40.9869 0.655696 25.6176 0.180888 -3.24028 -2.1197 21.8107 -3.64137 -0.0 0.0 -0.0 8.37259 -4.56698 -16.1797 76.0278 -65.0599 -7.04507 0.594895 16.42 -0.0858326 38.7081 0.283776 4.84377 -8.82642 -8.13665 73.436 0.0 0.0 0.0 3.42445 14.085 -6.85961 -12.8445 0.312257 1.94232 26.0982 16.9794 -3.51477 -23.1519 0.0 0.0 -0.0 0.0 -0.0 13.8642 5.73521 -0.402565 -29.2417 -0.0723643 -4.4385 30.2596 7.1959 4.02309 -19.0428 0.0 0.0 0.0 0.0 0.0 
332.536 685.84 -469.68 -170.406 -77.8773 -170.562 -0.34816 -0.311526 -1.47938 -0.346969 -0.216768 -1.4962 -0.340487 0.111502 -1.50771 -0.343637 -0.127983 -1.5064 -11.914 12.2993 1.48662 -12.1864 22.3755 4.95838 -0.0 0.0 -0.0 6.94109 23.3113 12.3751 -4.80105 -22.1899 71.8531 1.61192 -38.6044 0.56459 25.4411 0.184618 -3.21806 -2.23751 23.2659 -3.59837 -0.0 0.0 -0.0 8.78427 -3.57592 -17.0292 73.9726 -65.1421 -9.07251 0.710702 19.3952 -0.121453 38.2509 0.261428 4.78975 -8.73092 -6.98423 73.6594 0.0 0.0 0.0 3.32745 14.5348 -6.94119 -11.779 0.30301 1.77911 27.8845 16.1292 -3.71124 -22.3777 0.0 0.0 -0.0 0.0 -0.0 14.0767 5.1406 -0.549914 -29.7402 -0.0539314 -4.51279 32.1191 5.19796 4.1882 -19.6456 0.0 0.0 0.0 0.0 0.0 
336.277 687.128 -459.999 -168.083 -79.1353 -168.13 -0.259148 -0.346093 -1.59159 -0.257771 -0.244128 -1.61038 -0.249987 0.106876 -1.62527 -0.253641 -0.151111 -1.62175 -11.237 11.9831 3.91234 -11.3863 20.1254 7.04152 -0.0 0.0 -0.0 6.5979 22.6124 11.941 -4.95036 -22.0533 72.0795 1.47401 -36.134 0.480867 27.4366 0.138442 -3.46877 -2.68237 24.2408 -5.64344 -0.0 0.0 -0.0 9.09762 -2.96198 -17.6787 75.8165 -65.1878 -7.06464 0.670468 18.3729 -0.108431 40.0747 0.353151 5.00418 -8.62685 -5.73356 73.7765 0.0 0.0 0.0 3.21452 13.9466 -7.39032 -10.514 0.288093 1.58558 21.8176 17.0158 -2.99938 -18.2185 0.0 0.0 -0.0 0.0 -0.0 14.0272 5.45898 -2.01293 -29.7799 -0.0524328 -4.5187 32.8259 0.333345 4.20665 -19.9869 0.0 0.0 0.0 0.0 0.0 
342.813 685.709 -453.296 -169.149 -80.4043 -169.042 -0.464626 -0.214462 -1.6194 -0.463174 -0.110995 -1.62976 -0.459094 0.247018 -1.61475 -0.462733 -0.011067 -1.6335 -11.5846 12.0264 4.33714 -11.7359 19.9817 7.51955 -0.0 0.0 -0.0 6.88714 22.1429 12.4031 -4.15405 -19.7227 72.2306 1.24978 -31.7605 0.355557 27.7301 0.130916 -3.5055 -3.00996 22.7576 -8.34332 -0.0 0.0 -0.0 9.41575 -1.53983 -18.3865 70.0101 -65.0514 -12.7611 0.722144 19.6836 -0.12528 41.0747 0.406338 5.1205 -8.57318 -5.09589 73.7763 0.0 0.0 0.0 3.88337 13.6706 -8.7598 -9.29034 0.2696 1.39873 21.8672 17.5346 -3.01046 -15.0547 0.0 0.0 -0.0 0.0 -0.0 13.8823 6.15865 -2.41817 -32.0706 0.0407958 -4.85784 34.2724 0.225368 4.34999 -19.5655 0.0 0.0 0.0 0.0 0.0 
349.278 686.519 -448.302 -168.811 -82.2219 -168.628 -0.558561 -0.378983 -1.50138 -0.557351 -0.28269 -1.52244 -0.548871 0.0584106 -1.54736 -0.552164 -0.186669 -1.53717 -11.5349 12.0356 7.38649 -11.5426 18.0098 10.4041 -0.0 0.0 -0.0 7.01479 20.771 12.7129 -4.9611 -21.6084 71.9473 1.0352 -27.1485 0.249956 28.8301 0.10103 -3.64283 -3.63038 22.2856 -12.2793 -0.0 0.0 -0.0 9.97745 -0.818459 -19.5667 70.3114 -64.3087 -12.4374 0.678297 18.5729 -0.110912 43.9437 0.570122 5.44893 -8.56106 -5.02959 73.6093 0.0 0.0 0.0 4.0013 12.993 -9.63454 -8.42676 0.254149 1.26712 21.4592 18.2944 -2.96729 -14.1513 0.0 0.0 -0.0 0.0 -0.0 14.0316 7.83722 -3.1971 -34.6248 0.160672 -5.23136 36.1233 -3.70467 4.50825 -19.2002 0.0 0.0 0.0 0.0 0.0 
355.416 688.612 -437.531 -167.244 -84.275 -167.216 -0.557702 -0.371037 -1.51943 -0.556459 -0.273612 -1.53995 -0.548123 0.0710948 -1.56245 -0.551487 -0.176527 -1.55407 -11.633 11.3807 8.10255 -11.5823 16.3167 10.9121 -0.0 0.0 -0.0 7.13959 19.7078 12.9949 -5.73213 -21.4011 70.9359 0.877706 -23.4987 0.182556 29.0889 0.0936145 -3.67506 -4.07025 21.0913 -15.6811 -0.0 0.0 -0.0 11.0423 1.47819 -21.9155 71.1607 -64.0605 -13.5138 0.6742 18.4683 -0.10961 46.5323 0.73189 5.73798 -8.59027 -5.32656 73.7207 0.0 0.0 0.0 4.01182 12.5099 -10.2995 -8.05508 0.246888 1.21054 21.9191 16.9608 -3.01143 -13.3309 0.0 0.0 -0.0 0.0 -0.0 14.1148 8.51578 -4.26357 -36.0834 0.23658 -5.44221 35.5096 -5.76588 4.44768 -19.3159 0.0 0.0 0.0 0.0 0.0 
361.209 687.303 -431.866 -168.92 -85.4122 -168.618 -0.662225 -0.0675437 -1.49317 -0.660985 0.0275965 -1.49444 -0.660973 0.35792 -1.45122 -0.663891 0.124263 -1.48952 -12.1963 9.80396 6.0421 -12.2158 14.7497 8.58265 -0.0 0.0 -0.0 7.10853 18.9934 13.0064 -6.4793 -21.2419 70.5481 0.784012 -21.2249 0.146903 29.577 0.0792363 -3.73575 -4.36277 20.4688 -17.9001 -0.0 0.0 -0.0 11.4313 3.30049 -22.8437 70.1107 -64.1256 -15.6456 0.678101 18.5678 -0.110849 49.2633 0.916574 6.03478 -8.64237 -5.92942 73.7461 0.0 0.0 0.0 4.31988 12.0542 -10.9426 -9.42268 0.271793 1.41892 23.0061 11.6015 -3.10695 -12.8661 0.0 0.0 -0.0 0.0 -0.0 13.7184 7.19432 -4.68993 -37.5193 0.316539 -5.64786 36.66 -6.88668 4.55835 -19.0627 0.0 0.0 0.0 0.0 0.0 
